<svg aria-hidden="true" style="position: absolute; width: 0; height: 0; overflow: hidden;" version="1.1" xmlns="http://www.w3.org/2000/svg" xmlns:xlink="http://www.w3.org/1999/xlink">
<defs>
<symbol id="icon-logo-type" viewBox="0 0 30 32">
<path d="M20.474 24.355c-2.609 1.38-14.663 3.12-14.663 3.12s9.071-0.48 14.539-1.26c5.467-0.78 8.45-7.319 8.45-7.319l-26.965 2.94 23.983-1.020c0 0-2.734 2.159-5.343 3.539z"></path>
<path d="M15.317 2.079c6.42 9.738 0.373 16.237 0.373 16.237 4.225-7.439-0.373-16.237-0.373-16.237zM13.881 19.436l11.98-1.314c0 0 2.899-12.035-12.657-18.122 0 0 6.018 10.929 0.677 19.436z"></path>
<path d="M5.562 19.436c4.287-4.979 6.71-14.457 6.71-14.457-0.932 9.538-6.71 14.457-6.71 14.457zM12.707 1.5c0 0-2.982 11.338-8.636 19.017l9.133-1.080-0.497-17.937z"></path>
<path d="M11.465 22.436l-9.63 0.75 0.311 0.75 9.32-1.5z"></path>
<path d="M10.346 24.715l-7.301 1.194 0.311 0.75 6.99-1.944z"></path>
<path d="M2.518 24.685l0.311 0.75 10.376-2.25-10.687 1.5z"></path>
<path d="M3.516 29.076h-0.065c-0.087 0-0.171 0.023-0.251 0.068-0.077 0.045-0.141 0.102-0.191 0.17l-0.894 1.329v0.989c0.003 0.071 0.032 0.133 0.085 0.184 0.054 0.049 0.121 0.073 0.201 0.073h0.055v0.048h-1.406v-0.048h0.060c0.077 0 0.142-0.024 0.196-0.073 0.054-0.052 0.082-0.113 0.085-0.184v-0.989l-0.889-1.329c-0.047-0.071-0.11-0.128-0.191-0.17-0.077-0.045-0.161-0.068-0.251-0.068h-0.060v-0.049h1.527v0.049h-0.055c-0.064 0-0.111 0.021-0.141 0.063-0.027 0.039-0.040 0.073-0.040 0.102 0 0.026 0.007 0.050 0.020 0.073l0.668 1.115 0.678-1.115c0.010-0.023 0.015-0.047 0.015-0.073 0-0.029-0.015-0.063-0.045-0.102-0.027-0.042-0.072-0.063-0.136-0.063h-0.050v-0.049h1.075v0.049z"></path>
<path d="M6.291 31.888h0.040v0.048h-1.477v-0.048h0.040c0.067 0 0.115-0.019 0.146-0.058s0.045-0.074 0.045-0.107-0.007-0.066-0.020-0.102l-0.196-0.446h-1.065l-0.201 0.451c-0.013 0.032-0.020 0.066-0.020 0.102 0 0.032 0.015 0.068 0.045 0.107 0.034 0.036 0.084 0.053 0.151 0.053h0.040v0.048h-1.004v-0.048h0.040c0.070 0 0.141-0.021 0.211-0.063s0.127-0.105 0.171-0.189l1.040-2.153c0.147-0.32 0.224-0.517 0.231-0.592h0.045l1.346 2.725c0.044 0.094 0.1 0.163 0.171 0.209 0.074 0.042 0.147 0.063 0.221 0.063zM3.891 30.986h0.894l-0.442-1.013-0.452 1.013z"></path>
<path d="M8.084 32c-0.563-0.003-1.004-0.137-1.326-0.402-0.321-0.268-0.482-0.64-0.482-1.115s0.159-0.847 0.477-1.115c0.321-0.268 0.765-0.402 1.331-0.402 0.442 0 0.819 0.074 1.13 0.223v0.771h-0.035c-0.084-0.288-0.213-0.493-0.387-0.616s-0.393-0.184-0.658-0.184c-0.355 0-0.626 0.118-0.814 0.354-0.188 0.233-0.281 0.553-0.281 0.96 0 0.404 0.092 0.726 0.276 0.965 0.191 0.246 0.45 0.369 0.778 0.369 0.238 0 0.434-0.036 0.588-0.107s0.276-0.184 0.367-0.339c0.090-0.158 0.157-0.372 0.201-0.64h0.035l0.060 0.732c-0.104 0.165-0.263 0.297-0.477 0.398-0.211 0.1-0.472 0.15-0.783 0.15z"></path>
<path d="M13.074 31.888h0.055v0.048h-1.381v-0.048h0.050c0.077 0 0.142-0.024 0.196-0.073s0.080-0.11 0.080-0.184v-1.047h-1.321v1.047c0.003 0.074 0.032 0.136 0.085 0.184s0.117 0.073 0.191 0.073h0.055v0.048h-1.386v-0.048h0.055c0.077 0 0.142-0.024 0.196-0.073 0.054-0.052 0.080-0.113 0.080-0.184v-2.299c0-0.071-0.027-0.131-0.080-0.179-0.054-0.052-0.119-0.078-0.196-0.078h-0.055v-0.049h1.386v0.049h-0.055c-0.074 0-0.137 0.024-0.191 0.073s-0.082 0.108-0.085 0.179v1.062h1.321v-1.057c0-0.1-0.045-0.175-0.136-0.223-0.044-0.023-0.090-0.034-0.141-0.034h-0.050v-0.049h1.381v0.049h-0.055c-0.074 0-0.137 0.024-0.191 0.073s-0.082 0.11-0.085 0.184v2.303c0.003 0.1 0.049 0.173 0.136 0.218 0.044 0.023 0.090 0.034 0.141 0.034z"></path>
<path d="M16.203 29.716v-0.044c0-0.139-0.040-0.249-0.121-0.33s-0.193-0.123-0.337-0.126h-0.583v2.42c0.003 0.071 0.032 0.131 0.085 0.179s0.117 0.073 0.191 0.073h0.055v0.048h-1.386v-0.048h0.050c0.077 0 0.142-0.024 0.196-0.073s0.080-0.11 0.080-0.184v-2.415h-0.578c-0.147 0.003-0.261 0.045-0.342 0.126s-0.121 0.191-0.121 0.33v0.044h-0.050v-0.766c0.047 0.016 0.124 0.032 0.231 0.049 0.111 0.016 0.209 0.024 0.296 0.024h1.853c0.147 0 0.268-0.010 0.362-0.029 0.097-0.023 0.152-0.037 0.166-0.044v0.766h-0.050z"></path>
<path d="M19.536 32c-0.563-0.003-1.004-0.137-1.326-0.402-0.321-0.268-0.482-0.64-0.482-1.115s0.159-0.847 0.477-1.115c0.321-0.268 0.765-0.402 1.331-0.402 0.442 0 0.819 0.074 1.13 0.223v0.771h-0.035c-0.084-0.288-0.213-0.493-0.387-0.616s-0.393-0.184-0.658-0.184c-0.355 0-0.626 0.118-0.814 0.354-0.188 0.233-0.281 0.553-0.281 0.96 0 0.404 0.092 0.726 0.276 0.965 0.191 0.246 0.45 0.369 0.778 0.369 0.238 0 0.434-0.036 0.588-0.107s0.276-0.184 0.367-0.339c0.090-0.158 0.157-0.372 0.201-0.64h0.035l0.060 0.732c-0.104 0.165-0.263 0.297-0.477 0.398-0.211 0.1-0.472 0.15-0.783 0.15z"></path>
<path d="M21.152 31.937v-0.048h0.060c0.077 0 0.141-0.024 0.191-0.073 0.054-0.048 0.080-0.108 0.080-0.179v-2.303c0-0.071-0.027-0.131-0.080-0.179-0.054-0.052-0.117-0.078-0.191-0.078h-0.060v-0.049h1.396v0.049h-0.060c-0.077 0-0.142 0.024-0.196 0.073s-0.080 0.11-0.080 0.184v2.41h0.603c0.208-0.003 0.383-0.065 0.527-0.184 0.144-0.123 0.249-0.294 0.316-0.514h0.055l-0.196 0.892h-2.366z"></path>
<path d="M27.124 29.076h-0.070c-0.064 0-0.117 0.019-0.161 0.058-0.044 0.036-0.067 0.082-0.070 0.141v1.605c0 0.349-0.11 0.624-0.331 0.824-0.221 0.197-0.551 0.296-0.989 0.296-0.435 0-0.775-0.097-1.020-0.291-0.241-0.194-0.362-0.467-0.362-0.819v-1.61c0-0.058-0.023-0.107-0.070-0.145-0.044-0.039-0.097-0.058-0.161-0.058h-0.070v-0.049h1.321v0.049h-0.070c-0.064 0-0.117 0.019-0.161 0.058s-0.065 0.087-0.065 0.145v1.576c0 0.297 0.070 0.53 0.211 0.698 0.144 0.168 0.345 0.252 0.603 0.252s0.46-0.079 0.608-0.238c0.151-0.158 0.226-0.378 0.226-0.659v-1.629c-0.003-0.061-0.027-0.11-0.070-0.145-0.044-0.039-0.097-0.058-0.161-0.058h-0.065v-0.049h0.929v0.049z"></path>
<path d="M29.882 29.75c0 0.12-0.027 0.225-0.080 0.315-0.104 0.175-0.261 0.27-0.472 0.286 0.224 0.016 0.412 0.094 0.563 0.233 0.151 0.136 0.226 0.31 0.226 0.524 0 0.417-0.259 0.679-0.779 0.786-0.147 0.029-0.308 0.044-0.482 0.044h-1.457v-0.048h0.055c0.077 0 0.141-0.024 0.191-0.073 0.054-0.048 0.082-0.11 0.085-0.184v-2.299c-0.003-0.116-0.060-0.196-0.171-0.238-0.033-0.013-0.069-0.019-0.105-0.019h-0.055v-0.049h1.346c0.757 0 1.135 0.241 1.135 0.723zM29.304 31.064c0-0.149-0.032-0.273-0.095-0.373-0.117-0.194-0.32-0.291-0.608-0.291-0.003 0-0.007 0-0.010 0v-0.044c0.161 0 0.291-0.045 0.392-0.136s0.151-0.231 0.151-0.422c0-0.388-0.183-0.582-0.547-0.582h-0.141v2.526h0.201c0.194 0 0.352-0.055 0.472-0.165 0.124-0.11 0.186-0.281 0.186-0.514z"></path>
</symbol>
<symbol id="icon-arrow-five" viewBox="0 0 20 32">
<path stroke-linejoin="miter" stroke-linecap="butt" stroke-miterlimit="4" stroke-width="2.9091" d="M10.182 0v29.091M10.182 29.091l7.273-7.655M10.182 29.091l-7.273-7.655"></path>
</symbol>
<symbol id="icon-share-icon" viewBox="0 0 39 32">
<path d="M18.955 21.647h-3.791c-3.109-0.001-6.16 0.842-8.822 2.438s-4.834 3.884-6.281 6.617c-0.041-0.507-0.061-1.016-0.061-1.525 0-10.396 8.486-18.824 18.955-18.824v-10.353l19.902 16-19.902 16v-10.353zM15.164 17.882h7.582v6.227l10.086-8.109-10.086-8.109v6.227h-3.791c-2.179-0.002-4.333 0.463-6.315 1.364s-3.744 2.216-5.166 3.856c2.448-0.963 5.057-1.457 7.69-1.455z"></path>
</symbol>
<symbol id="icon-double_bed" viewBox="0 0 51 32">
<path d="M47.329 17.937c0.078-0.155 0.119-0.326 0.119-0.499v-1.659c-0.001-0.547-0.222-1.072-0.614-1.459s-0.925-0.605-1.48-0.606h-1.381v-9.262c-0.002-0.811-0.33-1.589-0.912-2.163s-1.371-0.897-2.193-0.899h-30.166c-0.823 0.001-1.613 0.324-2.196 0.898s-0.911 1.352-0.913 2.164v9.262h-1.469c-0.555 0.001-1.088 0.218-1.48 0.606s-0.614 0.912-0.614 1.46v1.659c0 0.173 0.041 0.344 0.119 0.5-0.791 0.212-1.489 0.674-1.987 1.316s-0.769 1.427-0.77 2.235v4.943c0.001 0.436 0.176 0.854 0.489 1.163s0.737 0.482 1.179 0.483h3.461v1.541c0.001 0.263 0.107 0.515 0.295 0.7s0.444 0.29 0.711 0.291h0.902c0.267-0 0.522-0.105 0.711-0.291s0.295-0.438 0.295-0.7v-1.541h33.765v1.541c0.001 0.263 0.107 0.515 0.295 0.7s0.444 0.29 0.711 0.291h0.902c0.267-0 0.522-0.105 0.711-0.291s0.295-0.438 0.295-0.7v-1.541h2.306c0.442-0.001 0.866-0.174 1.179-0.483s0.489-0.726 0.489-1.163v-4.943c-0.001-0.808-0.272-1.594-0.77-2.236s-1.197-1.104-1.988-1.316zM8.369 4.453c0.001-0.609 0.246-1.193 0.682-1.624s1.028-0.674 1.645-0.676h30.172c0.618 0.001 1.211 0.243 1.648 0.674s0.683 1.015 0.684 1.625v9.165h-4.579v-1.006c-0-0.293-0.119-0.575-0.329-0.782s-0.495-0.324-0.793-0.325h-8.061c-0.298 0-0.583 0.117-0.794 0.325s-0.329 0.489-0.329 0.783v1.011h-5.067v-1.011c-0-0.293-0.119-0.575-0.329-0.782s-0.495-0.324-0.793-0.325h-8.061c-0.298 0-0.583 0.117-0.794 0.325s-0.329 0.489-0.329 0.783v1.011h-4.573v-9.171zM37.849 12.612v1.011h-8.76v-1.011c0-0.092 0.037-0.179 0.103-0.244s0.155-0.101 0.247-0.101h8.061c0.093 0 0.181 0.037 0.247 0.101s0.102 0.152 0.102 0.244zM22.476 12.612v1.011h-8.76v-1.011c0-0.092 0.037-0.179 0.102-0.244s0.155-0.101 0.248-0.101h8.061c0.093 0 0.181 0.037 0.247 0.101s0.102 0.152 0.102 0.244zM4.802 15.788c0-0.345 0.14-0.677 0.387-0.921s0.584-0.382 0.934-0.382h39.23c0.35 0.001 0.686 0.138 0.934 0.382s0.387 0.575 0.388 0.921v1.659c0 0.098-0.039 0.193-0.11 0.262s-0.166 0.109-0.266 0.109h-41.117c-0.1 0-0.195-0.039-0.266-0.109s-0.11-0.164-0.11-0.262l-0.005-1.659zM8.667 29.625c0 0.030-0.006 0.060-0.018 0.088s-0.029 0.053-0.050 0.075-0.047 0.038-0.076 0.050c-0.028 0.012-0.059 0.018-0.089 0.018h-0.902c-0.032 0-0.063-0.006-0.092-0.017s-0.056-0.029-0.078-0.052c-0.022-0.022-0.039-0.049-0.051-0.078s-0.017-0.060-0.016-0.091v-1.473h1.366l0.005 1.481zM45.345 29.625c0 0.030-0.006 0.060-0.018 0.088s-0.029 0.053-0.050 0.075c-0.022 0.021-0.047 0.038-0.076 0.050s-0.059 0.018-0.089 0.018h-0.902c-0.062-0-0.12-0.025-0.164-0.068s-0.068-0.101-0.068-0.162v-1.481h1.367v1.481zM49.317 26.44c-0 0.234-0.095 0.458-0.263 0.624s-0.395 0.259-0.633 0.259h-45.362c-0.237-0-0.465-0.093-0.633-0.259s-0.262-0.39-0.263-0.624v-4.951c0.001-0.773 0.313-1.515 0.867-2.061s1.306-0.854 2.090-0.855h41.233c0.784 0.001 1.536 0.308 2.091 0.855s0.867 1.288 0.867 2.062v4.943l0.003 0.009z"></path>
<path d="M22.476 12.612v1.011h-8.76v-1.011c0-0.092 0.037-0.179 0.102-0.244s0.155-0.101 0.248-0.101h8.061c0.093 0 0.181 0.037 0.247 0.101s0.102 0.152 0.102 0.244z"></path>
<path d="M37.849 12.612v1.011h-8.76v-1.011c0-0.092 0.037-0.179 0.103-0.244s0.155-0.101 0.247-0.101h8.061c0.093 0 0.181 0.037 0.247 0.101s0.102 0.152 0.102 0.244z"></path>
<path d="M45.345 29.625c0 0.030-0.006 0.060-0.018 0.088s-0.029 0.053-0.050 0.075c-0.022 0.021-0.047 0.038-0.076 0.050s-0.059 0.018-0.089 0.018h-0.902c-0.062-0-0.12-0.025-0.164-0.068s-0.068-0.101-0.068-0.162v-1.481h1.367v1.481z"></path>
<path d="M8.667 29.625c0 0.030-0.006 0.060-0.018 0.088s-0.029 0.053-0.050 0.075-0.047 0.038-0.076 0.050c-0.028 0.012-0.059 0.018-0.089 0.018h-0.902c-0.032 0-0.063-0.006-0.092-0.017s-0.056-0.029-0.078-0.052c-0.022-0.022-0.039-0.049-0.051-0.078s-0.017-0.060-0.016-0.091v-1.473h1.366l0.005 1.481z"></path>
<path stroke-linejoin="miter" stroke-linecap="butt" stroke-miterlimit="4" stroke-width="1.3913" d="M47.329 17.937c0.078-0.155 0.119-0.326 0.119-0.499v-1.659c-0.001-0.547-0.222-1.072-0.614-1.459s-0.925-0.605-1.48-0.606h-1.381v-9.262c-0.002-0.811-0.33-1.589-0.912-2.163s-1.371-0.897-2.193-0.899h-30.166c-0.823 0.001-1.613 0.324-2.196 0.898s-0.911 1.352-0.913 2.164v9.262h-1.469c-0.555 0.001-1.088 0.218-1.48 0.606s-0.614 0.912-0.614 1.46v1.659c0 0.173 0.041 0.344 0.119 0.5-0.791 0.212-1.489 0.674-1.987 1.316s-0.769 1.427-0.77 2.235v4.943c0.001 0.436 0.176 0.854 0.489 1.163s0.737 0.482 1.179 0.483h3.461v1.541c0.001 0.263 0.107 0.515 0.295 0.7s0.444 0.29 0.711 0.291h0.902c0.267-0 0.522-0.105 0.711-0.291s0.295-0.438 0.295-0.7v-1.541h33.765v1.541c0.001 0.263 0.107 0.515 0.295 0.7s0.444 0.29 0.711 0.291h0.902c0.267-0 0.522-0.105 0.711-0.291s0.295-0.438 0.295-0.7v-1.541h2.306c0.442-0.001 0.866-0.174 1.179-0.483s0.489-0.726 0.489-1.163v-4.943c-0.001-0.808-0.272-1.594-0.77-2.236s-1.197-1.104-1.988-1.316zM8.369 4.453c0.001-0.609 0.246-1.193 0.682-1.624s1.028-0.674 1.645-0.676h30.172c0.618 0.001 1.211 0.243 1.648 0.674s0.683 1.015 0.684 1.625v9.165h-4.579v-1.006c-0-0.293-0.119-0.575-0.329-0.782s-0.495-0.324-0.793-0.325h-8.061c-0.298 0-0.583 0.117-0.794 0.325s-0.329 0.489-0.329 0.783v1.011h-5.067v-1.011c-0-0.293-0.119-0.575-0.329-0.782s-0.495-0.324-0.793-0.325h-8.061c-0.298 0-0.583 0.117-0.794 0.325s-0.329 0.489-0.329 0.783v1.011h-4.573v-9.171zM37.849 12.612v1.011h-8.76v-1.011c0-0.092 0.037-0.179 0.103-0.244s0.155-0.101 0.247-0.101h8.061c0.093 0 0.181 0.037 0.247 0.101s0.102 0.152 0.102 0.244zM22.476 12.612v1.011h-8.76v-1.011c0-0.092 0.037-0.179 0.102-0.244s0.155-0.101 0.248-0.101h8.061c0.093 0 0.181 0.037 0.247 0.101s0.102 0.152 0.102 0.244zM4.802 15.788c0-0.345 0.14-0.677 0.387-0.921s0.584-0.382 0.934-0.382h39.23c0.35 0.001 0.686 0.138 0.934 0.382s0.387 0.575 0.388 0.921v1.659c0 0.098-0.039 0.193-0.11 0.262s-0.166 0.109-0.266 0.109h-41.117c-0.1 0-0.195-0.039-0.266-0.109s-0.11-0.164-0.11-0.262l-0.005-1.659zM8.667 29.625c0 0.030-0.006 0.060-0.018 0.088s-0.029 0.053-0.050 0.075-0.047 0.038-0.076 0.050c-0.028 0.012-0.059 0.018-0.089 0.018h-0.902c-0.032 0-0.063-0.006-0.092-0.017s-0.056-0.029-0.078-0.052c-0.022-0.022-0.039-0.049-0.051-0.078s-0.017-0.060-0.016-0.091v-1.473h1.366l0.005 1.481zM45.345 29.625c0 0.030-0.006 0.060-0.018 0.088s-0.029 0.053-0.050 0.075c-0.022 0.021-0.047 0.038-0.076 0.050s-0.059 0.018-0.089 0.018h-0.902c-0.062-0-0.12-0.025-0.164-0.068s-0.068-0.101-0.068-0.162v-1.481h1.367v1.481zM49.317 26.44c-0 0.234-0.095 0.458-0.263 0.624s-0.395 0.259-0.633 0.259h-45.362c-0.237-0-0.465-0.093-0.633-0.259s-0.262-0.39-0.263-0.624v-4.951c0.001-0.773 0.313-1.515 0.867-2.061s1.306-0.854 2.090-0.855h41.233c0.784 0.001 1.536 0.308 2.091 0.855s0.867 1.288 0.867 2.062v4.943l0.003 0.009z"></path>
<path stroke-linejoin="miter" stroke-linecap="butt" stroke-miterlimit="4" stroke-width="1.3913" d="M22.476 12.612v1.011h-8.76v-1.011c0-0.092 0.037-0.179 0.102-0.244s0.155-0.101 0.248-0.101h8.061c0.093 0 0.181 0.037 0.247 0.101s0.102 0.152 0.102 0.244z"></path>
<path stroke-linejoin="miter" stroke-linecap="butt" stroke-miterlimit="4" stroke-width="1.3913" d="M37.849 12.612v1.011h-8.76v-1.011c0-0.092 0.037-0.179 0.103-0.244s0.155-0.101 0.247-0.101h8.061c0.093 0 0.181 0.037 0.247 0.101s0.102 0.152 0.102 0.244z"></path>
<path stroke-linejoin="miter" stroke-linecap="butt" stroke-miterlimit="4" stroke-width="1.3913" d="M45.345 29.625c0 0.030-0.006 0.060-0.018 0.088s-0.029 0.053-0.050 0.075c-0.022 0.021-0.047 0.038-0.076 0.050s-0.059 0.018-0.089 0.018h-0.902c-0.062-0-0.12-0.025-0.164-0.068s-0.068-0.101-0.068-0.162v-1.481h1.367v1.481z"></path>
<path stroke-linejoin="miter" stroke-linecap="butt" stroke-miterlimit="4" stroke-width="1.3913" d="M8.667 29.625c0 0.030-0.006 0.060-0.018 0.088s-0.029 0.053-0.050 0.075-0.047 0.038-0.076 0.050c-0.028 0.012-0.059 0.018-0.089 0.018h-0.902c-0.032 0-0.063-0.006-0.092-0.017s-0.056-0.029-0.078-0.052c-0.022-0.022-0.039-0.049-0.051-0.078s-0.017-0.060-0.016-0.091v-1.473h1.366l0.005 1.481z"></path>
</symbol>
<symbol id="icon-hands" viewBox="0 0 38 32">
<path d="M37.369 15.776c-0.208-0.222-0.556-0.234-0.778-0.026l-2.232 2.087-10.229-10.097 7.299-6.787c0.222-0.208 0.233-0.557 0.025-0.779s-0.556-0.233-0.778-0.025l-7.716 7.178c-0.225 0.211-0.23 0.578-0.010 0.794l0.905 0.893-0.289 0.255-6.048-0.521c-0.093-0.008-0.19 0.008-0.275 0.047l-4.792 2.183c-0.014-0.004-0.028-0.007-0.042-0.010l-2.756-0.487 0.223-0.57c0.11-0.282-0.027-0.6-0.308-0.712l-8.81-3.526c-0.282-0.113-0.603 0.024-0.716 0.307s0.024 0.603 0.307 0.716l8.303 3.323-4.893 12.509-3.022-1.071c-0.287-0.102-0.601 0.049-0.703 0.335s0.049 0.602 0.335 0.703l3.524 1.249c0.277 0.098 0.59-0.045 0.697-0.319l0.818-2.091 2.143 1.201-0.236 0.383c-0.67 1.086-0.332 2.514 0.754 3.184 0.574 0.354 1.286 0.438 1.928 0.231 0.103 0.669 0.496 1.265 1.072 1.621 0.574 0.354 1.286 0.438 1.928 0.231 0.103 0.669 0.496 1.265 1.071 1.621s1.284 0.439 1.928 0.231c0.103 0.668 0.496 1.265 1.071 1.62 0.837 0.517 1.944 0.439 2.699-0.193 0.19-0.159 0.354-0.35 0.484-0.561l0.376-0.609 0.309 0.19c0.838 0.515 1.945 0.436 2.698-0.198 0.19-0.16 0.353-0.35 0.483-0.562 0.258-0.42 0.365-0.891 0.337-1.35 0.175 0.042 0.354 0.065 0.534 0.065 0.8 0 1.556-0.422 1.975-1.103 0.252-0.411 0.367-0.879 0.338-1.35 0.174 0.042 0.353 0.064 0.533 0.064 0.8 0 1.556-0.422 1.975-1.103 0.252-0.411 0.367-0.879 0.338-1.351 0.176 0.042 0.355 0.064 0.534 0.064 0.778 0 1.538-0.392 1.974-1.102 0.668-1.087 0.327-2.515-0.76-3.182l-0.377-0.232 1.266-1.323 1.184 1.168c0.208 0.205 0.55 0.209 0.763 0.010l2.619-2.448c0.222-0.208 0.234-0.556 0.026-0.779zM10.311 24.773c-0.351 0.569-1.099 0.746-1.667 0.395s-0.746-1.099-0.395-1.668l3.084-5.001c0.344-0.558 1.083-0.741 1.647-0.407 0.584 0.345 0.745 1.146 0.394 1.714l-3.063 4.967zM13.31 26.624c-0.351 0.569-1.098 0.746-1.667 0.395-0.562-0.347-0.742-1.105-0.395-1.668l2.467-4.001c0.344-0.558 1.083-0.741 1.647-0.407 0.584 0.345 0.745 1.146 0.394 1.714l-2.447 3.967zM16.309 28.476c-0.17 0.275-0.437 0.468-0.752 0.543s-0.64 0.022-0.915-0.148c-0.562-0.347-0.742-1.105-0.395-1.668l1.85-3c0.344-0.558 1.083-0.741 1.647-0.407 0.584 0.345 0.745 1.146 0.394 1.714l-1.83 2.967zM20.521 28.361l-1.213 1.966c-0.347 0.562-1.105 0.742-1.667 0.395s-0.742-1.105-0.395-1.668l1.234-2c0.344-0.558 1.083-0.741 1.647-0.407 0.584 0.345 0.745 1.146 0.394 1.714zM30.552 18.556l-2.729-1.678c-0.253-0.156-0.602-0.072-0.757 0.181s-0.072 0.602 0.181 0.758l4.067 2.5c0.569 0.35 0.748 1.098 0.398 1.667s-1.097 0.748-1.666 0.398l-4.361-2.681c-0.259-0.159-0.598-0.078-0.757 0.181s-0.078 0.599 0.181 0.758l3.361 2.066c0.562 0.346 0.744 1.104 0.398 1.667s-1.103 0.744-1.666 0.398l-3.046-1.872c-0.259-0.159-0.598-0.078-0.757 0.181s-0.078 0.598 0.181 0.758l2.045 1.257c0.562 0.346 0.744 1.104 0.398 1.667s-1.103 0.744-1.666 0.398c0 0-1.798-1.104-1.815-1.112-0.251-0.122-0.559-0.035-0.708 0.208-0.159 0.259-0.078 0.598 0.181 0.758l0.765 0.47c0.569 0.35 0.748 1.098 0.398 1.667-0.346 0.562-1.103 0.744-1.666 0.398l-0.307-0.189 0.259-0.42c0.331-0.537 0.434-1.198 0.282-1.813-0.15-0.608-0.524-1.115-1.053-1.427-0.413-0.244-0.874-0.343-1.324-0.312 0.085-0.363 0.085-0.745-0.006-1.112-0.15-0.608-0.524-1.115-1.053-1.427-0.413-0.244-0.874-0.343-1.324-0.313 0.227-0.976-0.191-2.026-1.058-2.539-0.413-0.244-0.874-0.343-1.324-0.313 0.227-0.976-0.191-2.026-1.058-2.539-1.077-0.637-2.487-0.288-3.144 0.777l-2.269 3.679-2.317-1.298 3.431-8.772 1.868 0.33c-0.531 0.66-0.681 1.59-0.306 2.412 0.387 0.851 1.229 1.355 2.108 1.355 0.32 0 0.645-0.067 0.955-0.208l3.225-1.469c0.273-0.124 0.397-0.457 0.273-0.73s-0.456-0.397-0.729-0.273l-3.225 1.469c-0.608 0.277-1.328 0.008-1.605-0.601s-0.008-1.328 0.6-1.605l5.16-2.351 6.138 0.529c0.016 0.001 0.032 0.002 0.047 0.002 0.134 0 0.263-0.049 0.364-0.138l0.523-0.462 7.355 7.26-1.441 1.507z"></path>
<path d="M25.741 15.599l-5.103-3.137c-0.062-0.038-0.134-0.064-0.206-0.076l-1.598-0.282c-0.296-0.052-0.586 0.151-0.638 0.447s0.151 0.586 0.447 0.638l1.508 0.266 5.014 3.082c0.245 0.151 0.58 0.077 0.743-0.159 0.174-0.254 0.096-0.619-0.166-0.78z"></path>
</symbol>
<symbol id="icon-vector-three" viewBox="0 0 32 32">
<path d="M6.233 1.768l2.304 3.457h-4.697l10.732 13.16v13.074c-2.854 0.026-5.088 0.237-5.088 0.501 0 0.008 0.002 0.015 0.006 0.022s0.008 0.013 0.014 0.018h11.174c0.006-0.005 0.010-0.011 0.013-0.018s0.005-0.014 0.006-0.022c0-0.264-2.233-0.475-5.088-0.501v-13.068l10.732-13.16h-16.665l-2.662-4.011c-0.234-0.351-0.547-0.639-0.913-0.838s-0.773-0.303-1.186-0.303h-4.915v0.976h4.909c0.26-0.001 0.517 0.063 0.748 0.187s0.429 0.304 0.577 0.525zM24.178 6.267l-1.818 2.23h-10.508l-1.485-2.23h13.811zM9.229 6.267l1.485 2.23h-1.696l6.675 8.186-0.595 0.732-9.088-11.148h3.219z"></path>
<path d="M27.327 8.648c0.727 0 1.439-0.22 2.047-0.631s1.085-0.998 1.373-1.687c0.288-0.688 0.374-1.449 0.248-2.187s-0.459-1.423-0.959-1.968c-0.499-0.545-1.142-0.928-1.85-1.101s-1.449-0.129-2.133 0.128-1.279 0.713-1.714 1.315c-0.435 0.601-0.689 1.321-0.731 2.069h-0.947c0.044-0.942 0.355-1.849 0.894-2.61s1.284-1.342 2.141-1.671c0.857-0.329 1.789-0.392 2.68-0.18s1.702 0.688 2.333 1.371c0.631 0.682 1.054 1.541 1.216 2.468s0.057 1.884-0.304 2.75c-0.36 0.866-0.959 1.605-1.723 2.124s-1.658 0.795-2.572 0.795c-1.051 0.002-2.072-0.366-2.893-1.042l0.608-0.745c0.655 0.521 1.458 0.804 2.285 0.805z"></path>
</symbol>
<symbol id="icon-vector-four" viewBox="0 0 58 32">
<path d="M57.431 29.949h-4.748c-0.225-6.164-2.388-12.056-6.126-16.685s-8.824-7.712-14.401-8.731v-1.187c0-0.887-0.323-1.738-0.898-2.366s-1.355-0.98-2.168-0.98c-0.813 0-1.593 0.352-2.169 0.98s-0.898 1.478-0.898 2.366v0.917c-5.964 0.563-11.533 3.485-15.66 8.216s-6.526 10.944-6.746 17.471h-2.819c-0.114 0.009-0.226 0.042-0.328 0.099s-0.193 0.135-0.267 0.231c-0.074 0.096-0.129 0.207-0.163 0.326s-0.045 0.245-0.034 0.369c-0.015 0.249 0.059 0.496 0.206 0.687s0.357 0.312 0.585 0.338h56.586c0.114-0.009 0.226-0.042 0.328-0.099s0.193-0.135 0.267-0.231c0.074-0.096 0.129-0.207 0.163-0.326s0.045-0.245 0.034-0.369c0.017-0.121 0.010-0.244-0.018-0.363s-0.080-0.229-0.149-0.325c-0.070-0.096-0.156-0.176-0.255-0.234s-0.208-0.093-0.319-0.104zM5.445 29.949c0.245-6.39 2.744-12.43 6.974-16.857s9.867-6.899 15.729-6.899c5.862 0 11.498 2.472 15.729 6.899s6.73 10.467 6.974 16.857h-45.407zM29.089 1.997c0.163-0.001 0.324 0.032 0.475 0.1s0.287 0.167 0.402 0.292c0.115 0.126 0.206 0.275 0.268 0.439s0.093 0.34 0.091 0.518v0.917c-0.742-0.054-1.434-0.108-2.176-0.108h-0.247v-0.809c0.002-0.348 0.127-0.682 0.347-0.933s0.521-0.4 0.84-0.417z"></path>
<path d="M40.168 11.98c-0.12-0.028-0.244-0.031-0.365-0.007s-0.236 0.074-0.34 0.146c-0.103 0.073-0.193 0.167-0.263 0.277s-0.119 0.235-0.145 0.366c-0.026 0.131-0.028 0.267-0.006 0.398s0.068 0.258 0.134 0.371 0.153 0.21 0.254 0.286c0.101 0.076 0.215 0.13 0.335 0.159 0.148 0.054 3.215 0.809 4.748 5.72 0.063 0.203 0.183 0.38 0.343 0.505s0.351 0.194 0.548 0.196c0.101 0.009 0.203-0.010 0.297-0.054 0.236-0.086 0.431-0.271 0.542-0.514s0.13-0.524 0.051-0.781c-1.88-6.098-5.936-7.069-6.134-7.069z"></path>
</symbol>
<symbol id="icon-ellipse-five" viewBox="0 0 32 32">
<path stroke-linejoin="miter" stroke-linecap="butt" stroke-miterlimit="4" stroke-width="0.5517" d="M31.724 16c0 8.684-7.040 15.724-15.724 15.724s-15.724-7.040-15.724-15.724c0-8.684 7.040-15.724 15.724-15.724s15.724 7.040 15.724 15.724z"></path>
</symbol>
<symbol id="icon-arrow-two" viewBox="0 0 26 32">
<path stroke-linejoin="miter" stroke-linecap="butt" stroke-miterlimit="4" stroke-width="1.6" d="M1.6 30.4l22.4-14.4-22.4-14.4"></path>
</symbol>
<symbol id="icon-arrow-three" viewBox="0 0 26 32">
<path stroke-linejoin="miter" stroke-linecap="butt" stroke-miterlimit="4" stroke-width="1.6" d="M24 1.6l-22.4 14.4 22.4 14.4"></path>
</symbol>
<symbol id="icon-arrow-four" viewBox="0 0 57 32">
<path stroke-linejoin="miter" stroke-linecap="butt" stroke-miterlimit="4" stroke-width="2.2857" d="M57.143 16h-54.857M2.286 16l14.436 13.714M2.286 16l14.436-13.714"></path>
</symbol>
<symbol id="icon-arrow" viewBox="0 0 57 32">
<path stroke-linejoin="miter" stroke-linecap="butt" stroke-miterlimit="4" stroke-width="2.2857" d="M0 16h54.857M54.857 16l-14.436-13.714M54.857 16l-14.436 13.714"></path>
</symbol>
<symbol id="icon-account" viewBox="0 0 32 32">
<path d="M15.986 0c-3.238 0.003-6.398 0.989-9.064 2.828s-4.712 4.445-5.868 7.473c-1.156 3.028-1.367 6.336-0.605 9.487s2.46 5.996 4.871 8.16l0.233 0.2 0.127 0.093c0.287 0.247 0.58 0.481 0.887 0.701l0.247 0.18c0.32 0.227 0.667 0.441 0.993 0.667l0.167 0.1c0.373 0.22 0.753 0.421 1.14 0.607 0.841 0.399 1.716 0.722 2.613 0.968h0.047c0.427 0.12 0.86 0.22 1.333 0.3h0.12c0.427 0.073 0.853 0.134 1.293 0.174h0.147c0.44 0.040 0.887 0.060 1.333 0.060s0.893 0 1.333-0.060h0.147c0.44-0.040 0.867-0.1 1.293-0.174h0.12c0.44-0.080 0.88-0.18 1.333-0.3h0.047c0.898-0.245 1.772-0.569 2.613-0.968 0.387-0.187 0.767-0.394 1.14-0.607l0.167-0.1c0.34-0.2 0.667-0.421 0.993-0.667l0.247-0.18c0.307-0.22 0.6-0.454 0.887-0.701l0.127-0.093 0.233-0.2c2.412-2.165 4.111-5.013 4.872-8.166s0.548-6.464-0.611-9.493c-1.159-3.029-3.209-5.635-5.88-7.472s-5.835-2.82-9.075-2.817zM15.986 16.020c-1.055 0-2.086-0.313-2.963-0.9s-1.561-1.421-1.964-2.397c-0.404-0.976-0.509-2.049-0.303-3.085s0.714-1.987 1.46-2.734c0.746-0.747 1.696-1.255 2.731-1.461s2.107-0.1 3.082 0.304c0.974 0.404 1.807 1.089 2.393 1.967s0.899 1.911 0.899 2.967c0 1.416-0.562 2.774-1.562 3.776s-2.357 1.564-3.771 1.564zM17.986 17.355c1.945 0 3.81 0.774 5.185 2.151s2.148 3.245 2.148 5.192v2.67l-0.087 0.067c-0.26 0.214-0.533 0.421-0.807 0.614l-0.187 0.127c-0.293 0.207-0.6 0.394-0.913 0.574l-0.173 0.1c-0.327 0.187-0.667 0.36-0.993 0.514l-0.107 0.007c-1.111 0.502-2.28 0.865-3.48 1.081h-0.113c-0.373 0.067-0.76 0.113-1.14 0.154h-0.16c-0.393 0-0.78 0.053-1.173 0.053s-0.78 0-1.173-0.053h-0.16c-0.38 0-0.767-0.080-1.14-0.147h-0.113c-1.199-0.214-2.366-0.58-3.473-1.088h-0.113c-0.333-0.16-0.667-0.327-0.993-0.514l-0.167-0.154c-0.313-0.18-0.62-0.367-0.913-0.574l-0.193-0.093c-0.273-0.2-0.547-0.4-0.807-0.614l-0.087-0.053v-2.67c0-1.947 0.773-3.815 2.148-5.192s3.241-2.151 5.185-2.151h4zM26.653 26.086v-1.388c0.001-1.998-0.687-3.936-1.948-5.486s-3.017-2.616-4.972-3.018c1.179-0.802 2.071-1.962 2.543-3.309s0.501-2.81 0.082-4.175c-0.419-1.364-1.264-2.559-2.411-3.407s-2.535-1.306-3.961-1.306c-1.426 0-2.814 0.458-3.961 1.306s-1.992 2.042-2.411 3.407c-0.419 1.365-0.39 2.828 0.082 4.175s1.364 2.507 2.543 3.309c-1.955 0.403-3.711 1.469-4.972 3.018s-1.949 3.487-1.948 5.486v1.388c-1.966-2.086-3.279-4.703-3.777-7.527s-0.158-5.733 0.976-8.367c1.134-2.634 3.014-4.877 5.408-6.453s5.195-2.416 8.060-2.416c2.865 0 5.667 0.84 8.060 2.416s4.273 3.82 5.408 6.453c1.134 2.634 1.474 5.543 0.976 8.367s-1.811 5.441-3.777 7.527z"></path>
</symbol>
</defs>
</svg>
